# xmcd
#
# Track frame offsets:
#	150
#	11885
#	23949
#	34318
#	50408
#	62079
#	74658
#	86471
#	98784
#	111508
#	123927
#	135949
#	146989
#	159957
#	174224
#	190532
#	203350
#	217284
#	228738
#	244280
#
# Disc length: 3421 seconds
#
# Revision: 0
# Processed by: cddbd v1.5.2PL0 Copyright (c) Steve Scherf et al.
# Submitted via: EasyCDDAExtractor 10.2.0.1
#
DISCID=210d5b14
DTITLE=Tommy Overstreet - 20 Classic Songs
DYEAR=2008
DGENRE=Country
TTITLE0=Gwen (Congratulations)
TTITLE1=I Don't Know You (Anymore)
TTITLE2=Ann (Don't Go Runnin')
TTITLE3=A Seed Before The Rose
TTITLE4=Heaven Is My Woman's Love
TTITLE5=Send Me No Roses
TTITLE6=I'll Never Break These Chains
TTITLE7=(Jeannie Marie) You Were A Lady
TTITLE8=If I Miss You Again Tonight
TTITLE9=I'm A Believer
TTITLE10=That's When My Woman Begins
TTITLE11=From Woman To Woman
TTITLE12=Here Comes That Girl Again
TTITLE13=Young Girl
TTITLE14=If Love Was A Bottle Of Wine
TTITLE15=Don't Go City Girl On Me
TTITLE16=Yes Ma'am
TTITLE17=Fadin' In, Fadin' Out
TTITLE18=I'll Never Let You Down
TTITLE19=Fadin' Renegade
EXTD=
EXTT0=
EXTT1=
EXTT2=
EXTT3=
EXTT4=
EXTT5=
EXTT6=
EXTT7=
EXTT8=
EXTT9=
EXTT10=
EXTT11=
EXTT12=
EXTT13=
EXTT14=
EXTT15=
EXTT16=
EXTT17=
EXTT18=
EXTT19=
PLAYORDER=
